HIERARCHY
ROOT mixamorig:Hips
{
	OFFSET 0.000000 201.639420 0.000000
	CHANNELS 6 Xposition Yposition Zposition Xrotation Yrotation Zrotation
	JOINT mixamorig:Spine
	{
		OFFSET 0.006200 19.524994 -2.481800
		CHANNELS 3 Xrotation Yrotation Zrotation
		JOINT mixamorig:Spine1
		{
			OFFSET -0.000900 22.835007 -2.825400
			CHANNELS 3 Xrotation Yrotation Zrotation
			JOINT mixamorig:Spine2
			{
				OFFSET -0.020600 26.552490 -3.193300
				CHANNELS 3 Xrotation Yrotation Zrotation
				JOINT mixamorig:Neck
				{
					OFFSET -0.060000 30.701813 1.352200
					CHANNELS 3 Xrotation Yrotation Zrotation
					JOINT mixamorig:Head
					{
						OFFSET -0.087200 22.547607 3.670900
						CHANNELS 3 Xrotation Yrotation Zrotation
						JOINT mixamorig:HeadTop_End
						{
							OFFSET -0.830600 40.355194 7.893500
							CHANNELS 3 Xrotation Yrotation Zrotation
							End Site
							{
								OFFSET 0.000000 30.592346 0.000000
							}
						}
						JOINT mixamorig:RightEye
						{
							OFFSET -6.302100 18.118591 16.197100
							CHANNELS 3 Xrotation Yrotation Zrotation
							End Site
							{
								OFFSET 0.000000 30.592346 0.000000
							}
						}
						JOINT mixamorig:LeftEye
						{
							OFFSET 6.741500 18.382690 16.401899
							CHANNELS 3 Xrotation Yrotation Zrotation
							End Site
							{
								OFFSET 0.000000 30.592346 0.000000
							}
						}
					}
				}
				JOINT mixamorig:LeftShoulder
				{
					OFFSET 11.924900 18.230499 1.425400
					CHANNELS 3 Xrotation Yrotation Zrotation
					JOINT mixamorig:LeftArm
					{
						OFFSET 25.435989 -0.697632 -5.229300
						CHANNELS 3 Xrotation Yrotation Zrotation
						JOINT mixamorig:LeftForeArm
						{
							OFFSET 54.684776 0.000000 0.000000
							CHANNELS 3 Xrotation Yrotation Zrotation
							JOINT mixamorig:LeftHand
							{
								OFFSET 55.098175 0.000000 0.000000
								CHANNELS 3 Xrotation Yrotation Zrotation
								JOINT mixamorig:LeftHandMiddle1
								{
									OFFSET 23.369751 0.000000 0.000000
									CHANNELS 3 Xrotation Yrotation Zrotation
									JOINT mixamorig:LeftHandMiddle2
									{
										OFFSET 6.378677 0.000000 0.000000
										CHANNELS 3 Xrotation Yrotation Zrotation
										JOINT mixamorig:LeftHandMiddle3
										{
											OFFSET 6.148331 0.000000 0.000000
											CHANNELS 3 Xrotation Yrotation Zrotation
											JOINT mixamorig:LeftHandMiddle4
											{
												OFFSET 6.582504 0.000000 0.000000
												CHANNELS 3 Xrotation Yrotation Zrotation
												End Site
												{
													OFFSET -1.168900 6.395691 1.028606
												}
											}
										}
									}
								}
								JOINT mixamorig:LeftHandThumb1
								{
									OFFSET 7.235672 -3.848206 5.434273
									CHANNELS 3 Xrotation Yrotation Zrotation
									JOINT mixamorig:LeftHandThumb2
									{
										OFFSET 6.568451 -3.792297 3.792300
										CHANNELS 3 Xrotation Yrotation Zrotation
										JOINT mixamorig:LeftHandThumb3
										{
											OFFSET 6.063080 -3.500519 3.500518
											CHANNELS 3 Xrotation Yrotation Zrotation
											JOINT mixamorig:LeftHandThumb4
											{
												OFFSET 4.793182 -2.767334 2.767349
												CHANNELS 3 Xrotation Yrotation Zrotation
												End Site
												{
													OFFSET 0.101639 6.054260 1.275483
												}
											}
										}
									}
								}
								JOINT mixamorig:LeftHandIndex1
								{
									OFFSET 23.101074 -0.309540 4.992809
									CHANNELS 3 Xrotation Yrotation Zrotation
									JOINT mixamorig:LeftHandIndex2
									{
										OFFSET 6.226883 0.000000 0.000000
										CHANNELS 3 Xrotation Yrotation Zrotation
										JOINT mixamorig:LeftHandIndex3
										{
											OFFSET 6.094330 0.000000 0.000000
											CHANNELS 3 Xrotation Yrotation Zrotation
											JOINT mixamorig:LeftHandIndex4
											{
												OFFSET 5.482605 0.000000 0.000000
												CHANNELS 3 Xrotation Yrotation Zrotation
												End Site
												{
													OFFSET -1.427902 5.233032 0.797164
												}
											}
										}
									}
								}
								JOINT mixamorig:LeftHandRing1
								{
									OFFSET 22.299240 0.021149 -3.964172
									CHANNELS 3 Xrotation Yrotation Zrotation
									JOINT mixamorig:LeftHandRing2
									{
										OFFSET 6.321869 0.000000 0.000000
										CHANNELS 3 Xrotation Yrotation Zrotation
										JOINT mixamorig:LeftHandRing3
										{
											OFFSET 5.899796 0.000000 0.000000
											CHANNELS 3 Xrotation Yrotation Zrotation
											JOINT mixamorig:LeftHandRing4
											{
												OFFSET 6.517899 0.000000 0.000000
												CHANNELS 3 Xrotation Yrotation Zrotation
												End Site
												{
													OFFSET -1.637299 6.232208 0.980890
												}
											}
										}
									}
								}
								JOINT mixamorig:LeftHandPinky1
								{
									OFFSET 20.463791 -0.302338 -8.562233
									CHANNELS 3 Xrotation Yrotation Zrotation
									JOINT mixamorig:LeftHandPinky2
									{
										OFFSET 6.908646 0.000000 0.000000
										CHANNELS 3 Xrotation Yrotation Zrotation
										JOINT mixamorig:LeftHandPinky3
										{
											OFFSET 4.622849 0.000000 0.000000
											CHANNELS 3 Xrotation Yrotation Zrotation
											JOINT mixamorig:LeftHandPinky4
											{
												OFFSET 5.216080 0.000000 0.000000
												CHANNELS 3 Xrotation Yrotation Zrotation
												End Site
												{
													OFFSET -0.606308 5.116241 0.814926
												}
											}
										}
									}
								}
							}
						}
					}
				}
				JOINT mixamorig:RightShoulder
				{
					OFFSET -12.001300 18.284088 1.348900
					CHANNELS 3 Xrotation Yrotation Zrotation
					JOINT mixamorig:RightArm
					{
						OFFSET -25.308500 -0.751312 -5.164599
						CHANNELS 3 Xrotation Yrotation Zrotation
						JOINT mixamorig:RightForeArm
						{
							OFFSET -54.684429 0.000000 0.000000
							CHANNELS 3 Xrotation Yrotation Zrotation
							JOINT mixamorig:RightHand
							{
								OFFSET -55.150291 0.000000 0.000000
								CHANNELS 3 Xrotation Yrotation Zrotation
								JOINT mixamorig:RightHandMiddle1
								{
									OFFSET -23.317566 0.000000 0.000000
									CHANNELS 3 Xrotation Yrotation Zrotation
									JOINT mixamorig:RightHandMiddle2
									{
										OFFSET -6.378403 0.000000 0.000000
										CHANNELS 3 Xrotation Yrotation Zrotation
										JOINT mixamorig:RightHandMiddle3
										{
											OFFSET -6.148193 0.000000 0.000000
											CHANNELS 3 Xrotation Yrotation Zrotation
											JOINT mixamorig:RightHandMiddle4
											{
												OFFSET -6.583389 0.000000 0.000000
												CHANNELS 3 Xrotation Yrotation Zrotation
												End Site
												{
													OFFSET 1.171692 6.395905 1.029786
												}
											}
										}
									}
								}
								JOINT mixamorig:RightHandThumb1
								{
									OFFSET -7.190521 -3.860474 5.435846
									CHANNELS 3 Xrotation Yrotation Zrotation
									JOINT mixamorig:RightHandThumb2
									{
										OFFSET -6.567429 -3.791718 3.791708
										CHANNELS 3 Xrotation Yrotation Zrotation
										JOINT mixamorig:RightHandThumb3
										{
											OFFSET -6.062469 -3.500153 3.500166
											CHANNELS 3 Xrotation Yrotation Zrotation
											JOINT mixamorig:RightHandThumb4
											{
												OFFSET -4.792618 -2.767029 2.767022
												CHANNELS 3 Xrotation Yrotation Zrotation
												End Site
												{
													OFFSET -0.100327 6.053253 1.276754
												}
											}
										}
									}
								}
								JOINT mixamorig:RightHandIndex1
								{
									OFFSET -23.048981 -0.310791 4.992554
									CHANNELS 3 Xrotation Yrotation Zrotation
									JOINT mixamorig:RightHandIndex2
									{
										OFFSET -6.227539 0.000000 0.000000
										CHANNELS 3 Xrotation Yrotation Zrotation
										JOINT mixamorig:RightHandIndex3
										{
											OFFSET -6.095047 0.000000 0.000000
											CHANNELS 3 Xrotation Yrotation Zrotation
											JOINT mixamorig:RightHandIndex4
											{
												OFFSET -5.484772 0.000000 0.000000
												CHANNELS 3 Xrotation Yrotation Zrotation
												End Site
												{
													OFFSET 1.420593 5.237305 0.797056
												}
											}
										}
									}
								}
								JOINT mixamorig:RightHandRing1
								{
									OFFSET -22.246323 0.020569 -3.963762
									CHANNELS 3 Xrotation Yrotation Zrotation
									JOINT mixamorig:RightHandRing2
									{
										OFFSET -6.322128 0.000000 0.000000
										CHANNELS 3 Xrotation Yrotation Zrotation
										JOINT mixamorig:RightHandRing3
										{
											OFFSET -5.900024 0.000000 0.000000
											CHANNELS 3 Xrotation Yrotation Zrotation
											JOINT mixamorig:RightHandRing4
											{
												OFFSET -6.518356 0.000000 0.000000
												CHANNELS 3 Xrotation Yrotation Zrotation
												End Site
												{
													OFFSET 1.636398 6.232697 0.982186
												}
											}
										}
									}
								}
								JOINT mixamorig:RightHandPinky1
								{
									OFFSET -20.411011 -0.303314 -8.561701
									CHANNELS 3 Xrotation Yrotation Zrotation
									JOINT mixamorig:RightHandPinky2
									{
										OFFSET -6.907349 0.000000 0.000000
										CHANNELS 3 Xrotation Yrotation Zrotation
										JOINT mixamorig:RightHandPinky3
										{
											OFFSET -4.623840 0.000000 0.000000
											CHANNELS 3 Xrotation Yrotation Zrotation
											JOINT mixamorig:RightHandPinky4
											{
												OFFSET -5.218353 0.000000 0.000000
												CHANNELS 3 Xrotation Yrotation Zrotation
												End Site
												{
													OFFSET 0.602097 5.118835 0.816273
												}
											}
										}
									}
								}
							}
						}
					}
				}
			}
		}
	}
	JOINT mixamorig:LeftUpLeg
	{
		OFFSET 18.168400 -13.561905 -0.039000
		CHANNELS 3 Xrotation Yrotation Zrotation
		JOINT mixamorig:LeftLeg
		{
			OFFSET 0.577358 -80.825211 -3.695000
			CHANNELS 3 Xrotation Yrotation Zrotation
			JOINT mixamorig:LeftFoot
			{
				OFFSET -0.577356 -83.370262 -6.520700
				CHANNELS 3 Xrotation Yrotation Zrotation
				JOINT mixamorig:LeftToeBase
				{
					OFFSET 0.750401 -20.798306 25.135401
					CHANNELS 3 Xrotation Yrotation Zrotation
					JOINT mixamorig:LeftToe_End
					{
						OFFSET -0.000500 0.001200 19.917799
						CHANNELS 3 Xrotation Yrotation Zrotation
						End Site
						{
							OFFSET 0.000000 19.917805 0.000000
						}
					}
				}
			}
		}
	}
	JOINT mixamorig:RightUpLeg
	{
		OFFSET -18.162500 -13.585098 -0.041000
		CHANNELS 3 Xrotation Yrotation Zrotation
		JOINT mixamorig:RightLeg
		{
			OFFSET -0.595024 -80.945297 -3.631900
			CHANNELS 3 Xrotation Yrotation Zrotation
			JOINT mixamorig:RightFoot
			{
				OFFSET 0.595024 -83.218193 -6.561200
				CHANNELS 3 Xrotation Yrotation Zrotation
				JOINT mixamorig:RightToeBase
				{
					OFFSET -0.753601 -20.807106 25.115000
					CHANNELS 3 Xrotation Yrotation Zrotation
					JOINT mixamorig:RightToe_End
					{
						OFFSET 0.000299 0.001700 19.918200
						CHANNELS 3 Xrotation Yrotation Zrotation
						End Site
						{
							OFFSET 0.000000 19.918203 0.000000
						}
					}
				}
			}
		}
	}
}
MOTION
Frames: 4
Frame Time: 0.033333
0.012527 168.071640 0.754986 9.553522 -14.020350 -0.404963 9.009442 -3.176693 2.693718 3.368009 -0.992441 -0.077683 3.359742 -1.009907 -0.086559 4.225540 3.664537 1.274997 -4.327253 16.084829 12.634990 0.000001 0.000000 0.000002 0.000001 0.000000 0.000002 0.000001 0.000000 0.000002 1.771548 -10.853854 12.730790 -90.088645 -24.713708 -65.480791 0.000006 -30.283361 -0.000001 -131.351341 11.230461 15.006851 0.405913 5.507048 -52.453165 3.387127 5.308614 -65.057436 0.282016 1.797460 -17.832377 -0.000000 -0.000001 0.000003 4.709208 9.560386 3.111988 19.473185 -1.474892 7.636917 -4.536183 -9.613108 1.492978 0.000001 0.000005 -0.000002 -0.212816 3.933723 -36.747125 2.942131 5.078881 -60.144624 0.513677 2.400831 -24.150483 0.000003 0.000001 0.000001 -0.074363 5.736816 -61.061427 4.055039 5.569507 -72.094907 0.582670 2.548961 -25.748015 -0.000001 0.000001 0.000003 -6.565570 4.545139 -72.425222 3.299620 5.267205 -64.107835 0.175344 1.424013 -14.038881 -0.000002 0.000001 -0.000005 0.686947 4.969850 1.828419 -59.429831 34.223250 86.887178 0.000077 106.835879 -0.000101 -28.144088 -36.812981 -29.809729 3.413054 -7.186239 51.650242 6.296824 -4.359589 110.634660 0.248707 -1.503044 18.790274 0.000001 0.000000 -0.000000 8.377139 -4.904122 11.022003 21.620189 -18.183891 -18.379221 -0.702941 -49.821200 -32.535179 0.000001 0.000002 -0.000000 -0.920041 1.683585 12.434969 0.748106 -2.533449 32.898299 0.615650 -2.316064 29.767829 0.000001 0.000000 -0.000004 -3.349042 -2.600426 57.010558 5.440870 -4.590902 99.698168 1.689403 -3.590668 50.382218 -0.000001 0.000001 -0.000003 -3.996456 -3.303927 64.593850 4.058830 -4.618669 82.610510 2.315553 -4.026773 59.787234 -0.000001 0.000000 -0.000002 -48.600027 7.224247 7.572300 103.661521 3.777127 -2.514998 -17.002340 7.188294 7.424027 -1.237447 -0.000002 -0.000000 -0.000003 -0.000001 0.000000 -34.714051 2.193270 11.383974 67.299029 -3.882383 -4.212199 -42.292951 -18.150516 -0.968742 -6.150045 -0.000001 -0.000006 -0.000001 -0.000001 -0.000000 
0.091080 169.377457 21.261629 9.923365 -13.340400 0.757945 8.707514 -3.421051 1.574950 3.180379 -1.053721 -0.264692 3.172451 -1.068468 -0.272287 4.375006 3.703440 1.232392 -5.030290 15.869975 13.522104 -0.000000 0.000000 -0.000002 -0.000000 0.000000 -0.000002 -0.000000 0.000000 -0.000002 1.954597 -12.057263 13.175013 -88.561940 -26.161595 -63.613862 -0.000004 -29.545786 -0.000003 -132.941996 11.422105 14.354080 0.412991 5.504538 -52.305466 3.390862 5.310341 -65.097795 0.283248 1.801276 -17.871579 0.000001 -0.000000 -0.000001 4.852351 9.793998 3.222363 19.473182 -1.474895 7.636917 -4.547042 -9.672614 1.501746 0.000004 -0.000003 0.000003 -0.175678 3.971599 -36.571783 2.954567 5.085988 -60.284978 0.519106 2.412873 -24.279615 -0.000005 -0.000001 -0.000001 -0.013636 5.757045 -60.873474 4.071370 5.574741 -72.262992 0.582666 2.548959 -25.748012 -0.000002 0.000000 -0.000003 -6.547728 4.519875 -72.276427 3.303360 5.269008 -64.148563 0.176344 1.428028 -14.079346 -0.000002 -0.000001 -0.000000 0.699411 5.085963 1.334043 -59.005840 33.490958 87.492449 0.000075 106.339680 -0.000077 -27.378281 -36.165811 -29.524107 3.502257 -7.251512 51.752784 6.298068 -4.359126 110.651114 0.249118 -1.504286 18.806139 0.000000 0.000000 -0.000001 8.204728 -4.715998 11.094466 21.729823 -18.346429 -18.357166 -0.759001 -49.686464 -32.536709 0.000001 0.000001 -0.000003 -0.942164 1.644981 12.772297 0.748117 -2.533465 32.898245 0.615648 -2.316065 29.767826 0.000002 0.000000 -0.000005 -3.247123 -2.664418 56.989797 5.435152 -4.591880 99.626676 1.689400 -3.590667 50.382218 -0.000001 -0.000000 0.000000 -3.933047 -3.331976 64.577635 4.057903 -4.618542 82.598721 2.314659 -4.026274 59.774530 0.000001 0.000001 -0.000002 -58.146343 7.030091 6.372397 98.144887 3.212365 -1.859113 -22.143555 9.141227 6.916216 -3.649312 0.000000 0.000002 0.000001 0.000000 0.000000 -24.734256 2.372687 9.024245 61.813745 -4.347620 -5.724056 -44.055441 -19.744113 -2.387997 -11.219241 -0.000003 0.000004 -0.000001 -0.000001 -0.000000 
0.230971 172.459717 41.815742 10.288566 -11.975091 1.736983 8.478330 -3.896252 0.662098 3.184611 -1.177570 -0.318655 3.178319 -1.187656 -0.328766 4.606293 3.649547 1.213247 -5.126560 15.372469 13.974470 0.000002 -0.000000 0.000000 0.000002 -0.000000 0.000000 0.000002 -0.000000 0.000000 2.236106 -13.687210 13.708943 -86.192165 -25.457305 -61.432456 0.000008 -31.768798 0.000006 -133.221446 10.910808 14.998610 0.355713 5.444986 -52.026015 3.397840 5.313555 -65.173153 0.285670 1.808770 -17.948559 -0.000001 -0.000002 0.000000 4.933677 9.921284 3.252300 19.473185 -1.474897 7.636918 -4.562146 -9.755618 1.514011 0.000002 0.000002 -0.000001 -0.211543 3.903253 -36.289499 2.947991 5.082231 -60.210597 0.516277 2.406621 -24.212642 -0.000000 0.000001 0.000001 -0.069158 5.718771 -60.770051 4.077146 5.576582 -72.322524 0.582666 2.548958 -25.748015 0.000001 0.000001 -0.000004 -6.580258 4.473894 -72.107065 3.312839 5.273580 -64.251747 0.178909 1.438209 -14.181709 -0.000001 -0.000001 -0.000003 0.700029 5.103788 1.415445 -58.202808 33.455674 87.580374 0.000131 106.446422 -0.000153 -26.794270 -35.693507 -29.641781 3.555013 -7.285221 51.910609 6.297104 -4.359494 110.638341 0.248803 -1.503280 18.793180 0.000001 -0.000000 -0.000000 8.222008 -4.722918 11.201246 22.039029 -18.801528 -18.294059 -0.762536 -49.678022 -32.536890 0.000003 0.000000 0.000001 -0.938626 1.614256 12.807895 0.748088 -2.533425 32.897784 0.615649 -2.316065 29.767826 0.000002 -0.000000 0.000001 -3.196826 -2.709789 57.082316 5.432296 -4.592350 99.591077 1.689401 -3.590668 50.382218 -0.000001 -0.000000 -0.000003 -3.889111 -3.354689 64.589397 4.056966 -4.618400 82.587164 2.313799 -4.025765 59.762386 -0.000001 -0.000000 0.000001 -64.426586 6.798506 3.694713 86.365474 4.030300 -0.917912 -23.834143 13.110122 8.137386 -5.808106 -0.000004 0.000000 0.000000 -0.000000 -0.000001 -13.229315 0.667664 5.926547 51.071015 -5.178675 -7.824581 -39.206003 -20.149572 0.525889 -18.424796 -0.000003 0.000004 0.000000 0.000003 0.000000 
0.349606 176.554031 62.260532 10.520472 -10.123726 2.452025 8.018889 -4.381963 0.006927 3.174136 -1.279580 -0.217531 3.170979 -1.284405 -0.231539 5.183936 3.527590 1.304591 -4.834714 14.853942 13.803236 -0.000001 -0.000001 0.000000 -0.000001 -0.000001 0.000000 -0.000001 -0.000001 0.000000 2.671630 -16.100021 14.234148 -83.018934 -23.147791 -59.319674 0.000030 -35.407632 0.000033 -132.678200 10.083790 16.237824 0.351792 5.443353 -52.051847 3.395498 5.312470 -65.147833 0.284890 1.806372 -17.923784 -0.000002 -0.000000 0.000001 4.897377 9.857730 3.201798 19.473185 -1.474896 7.636916 -4.558277 -9.734362 1.510884 0.000001 0.000002 -0.000001 -0.228949 3.884609 -36.361550 2.946230 5.081248 -60.190796 0.515663 2.405249 -24.197866 -0.000002 -0.000001 0.000000 -0.131369 5.691563 -60.872681 4.074622 5.575776 -72.296432 0.582663 2.548957 -25.748012 -0.000002 0.000003 0.000002 -6.611739 4.481419 -72.192190 3.307911 5.271214 -64.198061 0.177575 1.432906 -14.128442 -0.000002 -0.000003 -0.000001 0.687900 5.001169 1.982608 -56.343450 33.665569 87.117171 0.000117 107.110849 -0.000124 -26.143855 -35.800143 -29.839707 3.496702 -7.240372 51.898134 6.294744 -4.360374 110.607277 0.247982 -1.500932 18.762605 0.000000 0.000000 -0.000001 8.311355 -4.815489 11.204085 22.117083 -18.915009 -18.278875 -0.729297 -49.757918 -32.535978 0.000000 0.000001 -0.000003 -0.944471 1.695566 12.676385 0.748146 -2.533518 32.899143 0.615650 -2.316066 29.767832 0.000001 0.000001 -0.000005 -3.191543 -2.714781 57.093585 5.439278 -4.591171 99.678251 1.689402 -3.590667 50.382218 -0.000001 -0.000000 -0.000002 -3.896131 -3.354639 64.612626 4.060264 -4.618836 82.628220 2.316684 -4.027448 59.803456 0.000002 0.000001 -0.000001 -67.432846 5.570050 1.550858 64.509122 3.686636 0.693044 -22.171568 9.472323 0.723149 -2.470213 -0.000002 -0.000003 0.000000 0.000000 0.000000 -1.535358 -2.780423 2.925306 36.450220 -7.386120 -9.988335 -25.906692 -17.559785 8.123398 -28.119636 -0.000009 -0.000002 -0.000000 -0.000001 -0.000001 
